<?xml version="1.0" encoding="UTF-8"?>
<svg width="24px" height="24px" viewBox="0 0 24 24" version="1.1" xmlns="http://www.w3.org/2000/svg">
    <g stroke="none" stroke-width="1" fill="none" fill-rule="evenodd">
        <path d="M19,3H5C3.9,3,3,3.9,3,5v14c0,1.1,0.9,2,2,2h14c1.1,0,2-0.9,2-2V5C21,3.9,20.1,3,19,3z" fill="#58CC02"/>
        <path d="M7,7h2v2H7V7z M11,7h2v2h-2V7z M15,7h2v2h-2V7z M7,11h2v2H7V11z M11,11h2v2h-2V11z M15,11h2v2h-2V11z M7,15h2v2H7V15z M11,15h2v2h-2V15z M15,15h2v2h-2V15z" fill="#FFFFFF"/>
    </g>
</svg> 